<svg width="23" height="32" viewBox="0 0 23 32" fill="none" xmlns="http://www.w3.org/2000/svg">
                        <g clip-path="url(#clip0_12_142_item1)"><path d="M4.43147 31.0806C4.56956 31.0806 4.62135 31.0016 4.72491 30.9029L18.7066 16.5629C18.862 16.3852 18.9828 16.2074 18.9828 15.9901C18.9828 15.7728 18.8792 15.6148 18.7239 15.4568L4.75944 1.11687C4.63861 1.01811 4.56956 0.919348 4.43147 0.919348C4.20707 0.919348 4.0172 1.13662 4.0172 1.41315C4.0172 1.53166 4.03446 1.66992 4.12076 1.74893L17.9471 16.0099L4.12076 30.2313C4.03446 30.3301 4.0172 30.4683 4.0172 30.5868C4.0172 30.8634 4.20707 31.0806 4.43147 31.0806Z" fill="#878472" stroke="#878472" stroke-width="3"/></g>
                        <defs><clipPath id="clip0_12_142_item1"><rect width="23" height="32" fill="white"/></clipPath></defs>
                        </svg>