<svg width="33" height="29" viewBox="0 0 33 29" fill="none" xmlns="http://www.w3.org/2000/svg">
<path d="M10.1507 24.6181C13.4752 24.6181 15.737 26.2917 16.0776 27.0829C16.0912 27.1286 16.1185 27.159 16.1594 27.1894V3.74294C15.3146 2.93654 12.9983 1.73455 10.1643 1.73455C6.68992 1.73455 3.46078 3.71251 3.4744 4.79279V26.8547C3.4744 27.0981 3.62428 27.2655 3.84228 27.2655C4.04665 27.2655 4.19653 27.1894 4.25103 27.0829C4.59166 26.307 6.8398 24.6181 10.1507 24.6181ZM22.8493 24.6181C26.1738 24.6181 28.422 26.307 28.7626 27.0829C28.8035 27.1894 28.9533 27.2655 29.1577 27.2655C29.3757 27.2655 29.5256 27.0981 29.5256 26.8547V4.79279C29.5392 3.71251 26.3237 1.73455 22.8357 1.73455C20.0017 1.73455 17.699 2.93654 16.8406 3.74294V27.1894C16.8951 27.159 16.9088 27.1286 16.9224 27.0829C17.263 26.2917 19.5248 24.6181 22.8493 24.6181Z" fill="#5B574C" stroke="#B6521B"/>
</svg>